<svg width="24" height="24" viewBox="0 0 24 24" fill="none" xmlns="http://www.w3.org/2000/svg">
<mask id="mask0_1024_641" style="mask-type:alpha" maskUnits="userSpaceOnUse" x="0" y="0" width="24" height="24">
<rect width="24" height="24" fill="#D9D9D9"/>
</mask>
<g mask="url(#mask0_1024_641)">
<path d="M12 17.6923C11.0153 17.6923 10.066 17.8509 9.152 18.1683C8.23783 18.4856 7.39225 18.9679 6.61525 19.6152C6.62808 19.7064 6.66342 19.7882 6.72125 19.8605C6.77892 19.933 6.843 19.9795 6.9135 20H17.077C17.1475 19.9795 17.2116 19.933 17.2693 19.8605C17.3269 19.7882 17.3622 19.7064 17.375 19.6152C16.6108 18.9679 15.7717 18.4856 14.8577 18.1683C13.9436 17.8509 12.991 17.6923 12 17.6923ZM12 16.1923C13.15 16.1923 14.225 16.3672 15.225 16.7172C16.225 17.0673 17.15 17.5589 18 18.1923V4.30775C18 4.23075 17.9679 4.16025 17.9038 4.09625C17.8398 4.03208 17.7692 4 17.6923 4H6.30775C6.23075 4 6.16025 4.03208 6.09625 4.09625C6.03208 4.16025 6 4.23075 6 4.30775V18.1923C6.85 17.5589 7.775 17.0673 8.775 16.7172C9.775 16.3672 10.85 16.1923 12 16.1923ZM12 12.5385C11.5192 12.5385 11.1073 12.367 10.7645 12.024C10.4215 11.6812 10.25 11.2693 10.25 10.7885C10.25 10.3077 10.4215 9.89583 10.7645 9.553C11.1073 9.21 11.5192 9.0385 12 9.0385C12.4808 9.0385 12.8927 9.21 13.2355 9.553C13.5785 9.89583 13.75 10.3077 13.75 10.7885C13.75 11.2693 13.5785 11.6812 13.2355 12.024C12.8927 12.367 12.4808 12.5385 12 12.5385ZM6.30775 21.5C5.80258 21.5 5.375 21.325 5.025 20.975C4.675 20.625 4.5 20.1974 4.5 19.6923V4.30775C4.5 3.80258 4.675 3.375 5.025 3.025C5.375 2.675 5.80258 2.5 6.30775 2.5H17.6923C18.1974 2.5 18.625 2.675 18.975 3.025C19.325 3.375 19.5 3.80258 19.5 4.30775V19.6923C19.5 20.1974 19.325 20.625 18.975 20.975C18.625 21.325 18.1974 21.5 17.6923 21.5H6.30775ZM12 14.0385C12.9025 14.0385 13.6698 13.7225 14.302 13.0905C14.934 12.4583 15.25 11.691 15.25 10.7885C15.25 9.886 14.934 9.11867 14.302 8.4865C13.6698 7.8545 12.9025 7.5385 12 7.5385C11.0975 7.5385 10.3302 7.8545 9.698 8.4865C9.066 9.11867 8.75 9.886 8.75 10.7885C8.75 11.691 9.066 12.4583 9.698 13.0905C10.3302 13.7225 11.0975 14.0385 12 14.0385Z" fill="#414141"/>
</g>
</svg>
