<svg width="750" height="485" viewBox="0 0 750 485" fill="none" xmlns="http://www.w3.org/2000/svg">
<g opacity="0.1" clip-path="url(#clip0_522_3932)">
<mask id="mask0_522_3932" style="mask-type:luminance" maskUnits="userSpaceOnUse" x="0" y="-15" width="750" height="500">
<path d="M0 -15L750 -15L750 485L0 485L0 -15Z" fill="white"/>
</mask>
<g mask="url(#mask0_522_3932)">
<path d="M182.9 470.5C188.5 480.3 142.9 492 142.9 492C142.9 492 174.7 542.3 159.9 549C145.1 555.7 118.5 509.8 118.5 509.8C118.5 509.8 106.7 556.4 94.7998 553.5C82.9998 550.5 99.9998 498 99.9998 498C99.9998 498 34.0998 528.3 34.8998 512C35.5998 495.6 90.3998 477.1 90.3998 477.1C90.3998 477.1 51.8998 435.7 67.3998 429C82.8998 422.3 105.1 457.9 105.1 457.9C105.1 457.9 111.8 411.3 131.7 414.2C151.7 417.2 133.9 468.2 133.9 468.2C133.9 468.2 177 460.1 182.9 470.5Z" fill="#1D417B"/>
<path d="M12.8999 351.6C27.8999 352 20.5999 387.5 20.5999 387.5C20.5999 387.5 62.9999 380.2 63.3999 393.6C63.7999 407.1 30.2999 408.6 30.2999 408.6C30.2999 408.6 44.2999 442 35.9999 447.6C27.6999 453.3 8.69987 418 8.69987 418C8.69987 418 -27.8001 448.9 -34.6001 441.1C-41.4001 433.3 -14.8001 403.8 -14.8001 403.8C-14.8001 403.8 -46.4001 386 -43.9001 378.3C-41.4001 370.5 -4.20013 379.4 -4.20013 379.4C-4.20013 379.4 -1.90013 351.2 12.8999 351.6Z" fill="#1D417B"/>
<path d="M77.4993 366.6C59.7993 337.8 75.0993 254.8 134.799 254.4C194.599 254.1 140.299 314.4 179.599 322.2C218.999 329.9 257.699 319.1 249.999 370C242.399 420.9 219.499 482.9 183.699 454.2C147.899 425.5 168.399 395.9 147.099 386.6C125.799 377.4 116.199 429.7 77.4993 366.6Z" fill="#1D417B"/>
<path d="M11.4996 -21.6L-121.4 48.3C-121.4 48.3 -94.6004 137.1 -15.2004 93.3C64.0996 49.5 11.4996 -21.6 11.4996 -21.6Z" fill="#1D417B"/>
<path d="M238 129.4C228.8 119.5 184 129.4 184 129.4C184 129.4 194.1 160.7 153.7 177.4C113.3 194.1 58.7995 186.5 25.9995 231.4C-6.90046 276.3 -26.5005 322.6 -5.90046 343C2.89954 351.7 43.5995 343 43.5995 343C43.5995 343 27.9995 289.5 68.7995 251.1C109.7 212.7 174.4 220.3 210.2 197.1C247.9 172.5 250.4 142.8 238 129.4Z" fill="#1D417B"/>
<path d="M313.7 342.3C323.6 311.7 383.6 371.2 390.6 359.2C397.6 347.2 365.1 278.4 392.5 274.4C419.9 270.4 409.7 366.1 428.1 367.2C446.6 368.3 408.1 282.3 454.3 282.8C500.5 283.3 455 375.6 469.3 381.9C483.6 388.1 486.6 302.6 514.8 312.7C543.1 322.8 481.1 387.2 493 393.7C504.9 400.2 540.5 332 561.9 361.7C583.3 391.4 510.6 397.8 518.9 409.4C527.2 421 597.9 400.6 577.5 443.6C557 486.4 527.7 420.7 515.3 426.8C502.9 432.8 520.4 505 484.8 498.6C449.2 492.2 506.5 428.3 481.2 417.9C455.9 407.5 471.5 513 422.8 493.8C374.1 474.6 449.2 411.2 433.3 400.4C417.4 389.6 401.8 478.8 361.8 446.9C321.8 414.9 393.2 406.7 387.5 392.3C381.8 377.8 299.7 385.1 313.7 342.3Z" fill="#1D417B"/>
<path d="M569.5 461.2C627.4 397.8 813.4 503.9 741.1 560.2C710.5 584 699.4 534.9 670.1 522.4C640.8 509.9 619.1 565.5 576.8 541.4C550.6 526.5 544.6 488.5 569.5 461.2Z" fill="#1D417B"/>
<path d="M557 427.8C589.1 394.2 649.2 411.2 685.3 429.9C708.6 442.1 739 463.8 744.2 491.2C745 496.1 744.8 501.2 743.4 505.9C740.2 516.6 731.2 525.6 721.3 530.5C709.6 536.2 699.8 528.4 692.2 519.9C682.7 509.5 674.3 496.9 661.5 489.7C649.9 482.8 638.9 486.5 628.3 493.2C613.7 502.4 598.7 515.4 580.4 512.6L579.4 512.5L578.4 512.3L576.4 511.9C575.7 511.8 575.1 511.5 574.4 511.3L572.4 510.7L570.5 509.9C569.2 509.4 567.9 508.7 566.7 508.1C553.9 501.9 545 489.1 542.6 475.2C539.1 458.1 545.4 440.4 557 427.8ZM556.9 427.6C536.5 449.2 534 485.1 558.3 504.8C562.3 508 566.9 510.4 571.6 512.3C573.6 513 575.9 513.7 577.9 514.1L579 514.3L580.1 514.4C595.7 517 609.9 507.9 622.3 499.5C638.7 488.4 650.3 481.8 667.6 495.9C676.5 503.1 683.3 512.4 691.1 520.7C699.1 529.5 709.6 537.4 721.7 531.3C725.7 529.5 729.1 526.7 732.3 523.8C736.5 519.9 740.2 515.2 742.5 509.9C744.7 504.9 745.5 499.4 745.2 494C743.2 474.7 728.9 459.2 714.7 447.2C688 425.5 654.8 411 620.5 407.8C598 406.1 572.7 410.2 556.9 427.6Z" fill="white"/>
<path d="M145.1 129.4C132.7 87.3 96.0998 62.9 58.4998 70.9C20.8998 78.9 -15.4002 127.5 -12.0002 161.5C-8.60018 195.5 22.9998 199.9 41.6998 175C60.3998 150 89.0998 144.8 106.9 163.1C124.7 181.4 154.5 161.4 145.1 129.4Z" fill="#1D417B"/>
<path d="M159.2 94.6C148.5 56.3 113.2 26.1 72.0999 35.4C52.9999 40 37.1999 52.9 24.7999 67.6C7.59992 88.4 -8.90007 122.4 8.79993 147.4C18.9999 160.6 36.5999 159.1 48.5999 149.2C52.3999 146.2 55.4999 142.3 58.4999 138.5C64.4999 131.2 71.9999 125 80.7999 121.5C91.5999 117 104.6 117.5 114.4 124.1C118.6 126.6 121.4 130.7 125.7 133.1C132.1 136.9 140.6 136.9 147 133.1C160.2 125.6 163.6 108.2 159.2 94.6ZM159 94.6C163.2 108.2 159.9 125.1 146.5 132.2C140.2 135.6 132.4 135.4 126.4 131.7C122.3 129.2 119.4 125.1 115.4 122.5C105.2 115.3 91.3999 114.7 79.9999 119.5C70.7999 123.2 62.9999 129.5 56.8999 137.1C54.0999 140.8 50.9999 144.7 47.3999 147.6C36.3999 157 19.6999 158.6 10.0999 146.4C-7.40007 122.2 8.39993 88.2 25.4999 68C37.7999 53.6 53.8999 41.2 72.5999 37C112.4 28.4 148.3 57 159 94.6Z" fill="white"/>
<path d="M215.6 255.4C211.7 287.6 257.8 291.4 293.5 282.5C329.2 273.6 336.7 332.6 362.9 299.7C389.1 266.8 370.5 229.2 331.6 211.9C292.5 194.7 222.2 200.3 215.6 255.4Z" fill="#1D417B"/>
<path d="M199.1 267.2C196.3 288.9 217.1 297.1 235.1 298.7C249.7 300.2 264.5 298.3 278.7 294.8L280.3 294.5L281.9 294.3C282.9 294.2 284.2 294.1 285.2 294.2C295.4 294.4 303.7 301.2 310.7 308.1C318.5 315.5 328.1 327.5 339.4 318.8C344.8 314.7 348.9 309.1 352.3 303.2C361.8 287 361.1 267.2 350.7 251.5C335.6 228.4 307.9 216.3 281 214.3C244.3 211.3 203.8 226.1 199.1 267.2ZM199.3 267.2C203.8 231.7 235 217.2 267.6 216.1C298.2 215.2 331.7 226.2 349.5 252.5C359.8 267.4 361.1 287.1 351.8 303C347.6 310 341.6 319.2 333.2 321.1C324.2 322.4 317.5 312.9 311.6 307.4C305.3 301 298 294.5 288.8 293C285.4 292.4 281.8 292.5 278.5 293.2C264.4 296.5 249.8 298.6 235.3 297.5C217.2 296.3 196.7 288.9 199.3 267.2Z" fill="white"/>
<path d="M279.3 404.9C241 426.4 225.4 467.4 241.5 502.3C257.6 537.2 313.1 561.8 345.5 550.9C377.9 540 375.2 508.2 346.7 495.6C318.2 482.9 306.7 456.1 320.6 434.7C334.6 413.2 308.4 388.6 279.3 404.9Z" fill="#1D417B"/>
<mask id="mask1_522_3932" style="mask-type:luminance" maskUnits="userSpaceOnUse" x="235" y="399" width="134" height="155">
<path d="M279.3 404.9C241 426.4 225.4 467.4 241.5 502.3C257.6 537.2 313.1 561.8 345.5 550.9C377.9 540 375.2 508.2 346.7 495.6C318.2 482.9 306.7 456.1 320.6 434.7C334.6 413.2 308.4 388.6 279.3 404.9Z" fill="white"/>
</mask>
<g mask="url(#mask1_522_3932)">
<path d="M186.299 504.3C198.699 500.6 211.299 497.3 223.799 494C236.299 490.6 248.899 487.3 261.399 483.9C273.999 480.6 286.599 477.3 299.299 474.1C311.899 470.9 324.4 467.7 337.1 464.6C349.7 461.6 362.199 458.4 374.899 455.8C376.499 455.5 378.1 455.2 379.6 454.9C380.2 454.8 380.399 455.7 379.799 455.9C376.699 456.8 373.6 457.8 370.499 458.7C367.399 459.6 364.2 460.4 361.1 461.2C354.799 462.9 348.599 464.5 342.299 466.2C329.799 469.5 317.2 472.8 304.7 476.1C279.6 482.7 254.499 489.3 229.499 496.1C215.499 499.9 201.499 503.9 187.399 507.5C185.399 507.9 184.299 504.9 186.299 504.3Z" fill="white"/>
<path d="M182 492.4C194.4 488.7 207 485.4 219.5 482.1C232 478.7 244.6 475.3 257.1 472C269.7 468.7 282.3 465.4 295 462.2C307.6 459 320.1 455.8 332.8 452.7C345.4 449.7 357.9 446.5 370.6 443.9C372.2 443.6 373.8 443.3 375.3 443C375.9 442.9 376.1 443.8 375.5 444C372.4 444.9 369.3 445.9 366.2 446.8C363.1 447.7 359.9 448.5 356.8 449.3C350.5 451 344.3 452.6 338 454.3C325.5 457.6 312.9 460.9 300.4 464.2C275.3 470.8 250.2 477.4 225.2 484.2C211.2 488 197.2 492 183.1 495.6C181.1 496 180 493 182 492.4Z" fill="white"/>
<path d="M177.499 480.2C189.899 476.5 202.499 473.2 214.999 469.9C227.499 466.5 240.099 463.2 252.599 459.8C265.199 456.5 277.799 453.2 290.499 450C303.099 446.8 315.599 443.6 328.299 440.5C340.899 437.5 353.399 434.3 366.099 431.7C367.699 431.4 369.299 431.1 370.799 430.8C371.399 430.7 371.599 431.6 370.999 431.8C367.899 432.7 364.799 433.7 361.699 434.6C358.599 435.5 355.399 436.3 352.299 437.1C345.999 438.8 339.799 440.4 333.499 442.1C320.999 445.4 308.399 448.7 295.899 452C270.799 458.6 245.699 465.2 220.699 472C206.699 475.8 192.699 479.8 178.599 483.4C176.699 483.7 175.499 480.8 177.499 480.2Z" fill="white"/>
<path d="M173.299 468.4C185.699 464.7 198.299 461.4 210.799 458.1C223.299 454.7 235.899 451.4 248.399 448C260.999 444.7 273.599 441.4 286.299 438.2C298.899 435 311.4 431.8 324.1 428.7C336.7 425.7 349.199 422.5 361.899 419.9C363.499 419.6 365.1 419.3 366.6 419C367.2 418.9 367.399 419.8 366.799 420C363.699 420.9 360.6 421.9 357.499 422.8C354.399 423.7 351.2 424.5 348.1 425.3C341.799 427 335.599 428.6 329.299 430.3C316.799 433.6 304.2 436.9 291.7 440.2C266.6 446.8 241.499 453.4 216.499 460.2C202.499 464 188.499 468 174.399 471.6C172.399 472 171.299 469 173.299 468.4Z" fill="white"/>
<path d="M169 456.6C181.4 452.9 194 449.6 206.5 446.3C219 442.9 231.6 439.6 244.1 436.2C256.7 432.9 269.3 429.6 282 426.4C294.6 423.2 307.1 420 319.8 416.9C332.4 413.9 344.9 410.7 357.6 408.1C359.2 407.8 360.8 407.5 362.3 407.2C362.9 407.1 363.1 408 362.5 408.2C359.4 409.1 356.3 410.1 353.2 411C350.1 411.9 346.9 412.7 343.8 413.5C337.5 415.2 331.3 416.8 325 418.5C312.5 421.8 299.9 425.1 287.4 428.4C262.3 435 237.2 441.6 212.2 448.4C198.2 452.2 184.2 456.2 170.1 459.8C168.1 460.2 167 457.2 169 456.6Z" fill="white"/>
<path d="M164.8 444.9C177.2 441.2 189.8 437.9 202.3 434.6C214.8 431.2 227.4 427.9 239.9 424.5C252.5 421.2 265.1 417.9 277.8 414.7C290.4 411.5 302.9 408.3 315.6 405.2C328.2 402.2 340.7 399 353.4 396.4C355 396.1 356.6 395.8 358.1 395.5C358.7 395.4 358.9 396.3 358.3 396.5C355.2 397.4 352.1 398.4 349 399.3C345.9 400.2 342.7 401 339.6 401.8C333.3 403.5 327.1 405.1 320.8 406.8C308.3 410.1 295.7 413.4 283.2 416.7C258 423 233 429.7 207.9 436.5C193.9 440.3 179.9 444.3 165.8 447.9C163.9 448.4 162.7 445.5 164.8 444.9Z" fill="white"/>
<path d="M160.5 433.1C172.9 429.4 185.5 426.1 198 422.8C210.5 419.4 223.1 416.1 235.6 412.7C248.2 409.4 260.8 406.1 273.5 402.9C286.1 399.7 298.6 396.5 311.3 393.4C323.9 390.4 336.4 387.2 349.1 384.6C350.7 384.3 352.3 384 353.8 383.7C354.4 383.6 354.6 384.5 354 384.7C350.9 385.6 347.8 386.6 344.7 387.5C341.6 388.4 338.4 389.2 335.3 390C329 391.7 322.8 393.3 316.5 395C304 398.3 291.4 401.6 278.9 404.9C253.8 411.5 228.7 418.1 203.7 424.9C189.7 428.7 175.7 432.7 161.6 436.3C159.6 436.7 158.5 433.7 160.5 433.1Z" fill="white"/>
<path d="M195.299 529C207.699 525.3 220.299 522 232.799 518.7C245.299 515.3 257.899 512 270.399 508.6C282.999 505.3 295.599 502 308.299 498.8C320.899 495.6 333.4 492.4 346.1 489.3C358.7 486.3 371.199 483.1 383.899 480.5C385.499 480.2 387.1 479.9 388.6 479.6C389.2 479.5 389.399 480.4 388.799 480.6C385.699 481.5 382.6 482.5 379.499 483.4C376.399 484.3 373.2 485.1 370.1 485.9C363.799 487.6 357.599 489.2 351.299 490.9C338.799 494.2 326.2 497.5 313.7 500.8C288.6 507.4 263.499 514 238.499 520.8C224.499 524.6 210.499 528.6 196.399 532.2C194.399 532.6 193.299 529.6 195.299 529Z" fill="white"/>
<path d="M191 517.3C203.4 513.6 216 510.3 228.5 507C241 503.6 253.6 500.3 266.1 496.9C278.7 493.5 291.4 490.3 304 487C316.6 483.8 329.1 480.6 341.8 477.5C354.4 474.5 366.9 471.3 379.6 468.7C381.2 468.4 382.8 468.1 384.3 467.8C384.9 467.7 385.1 468.6 384.5 468.8C381.4 469.7 378.3 470.7 375.2 471.6C372.1 472.5 368.9 473.3 365.8 474.1C359.5 475.8 353.3 477.4 347 479.1C334.5 482.4 321.9 485.7 309.4 489C284.3 495.6 259.2 502.2 234.2 509C220.2 512.8 206.2 516.8 192.1 520.4C190.1 520.8 189 517.9 191 517.3Z" fill="white"/>
</g>
<path d="M128.399 470.5C132.999 479.8 95.1994 489.9 88.3994 491.6L87.9994 491.7L88.1994 492.1C95.9994 505.3 103.599 518.9 107.599 533.7C109.399 540.6 109.799 550.9 99.6994 548.4C86.8994 544.1 71.7994 520.9 64.6994 509.3L63.6994 507.6L63.1994 509.5C59.4994 522.6 55.7994 536.2 48.3994 547.7C46.3994 550.9 41.4994 555.6 38.2994 551.4C35.9994 547.5 36.4994 542.6 36.7994 538.2C38.1994 524.3 41.8994 510.7 45.9994 497.3L45.3994 497.6C38.0994 500.9 -20.0006 526.7 -19.0006 511.7C-16.8006 497.3 23.0994 482.7 36.1994 478L37.4994 477.5C28.3994 467.2 19.1994 456.4 12.9994 443.9C11.3994 440.3 9.29937 435.5 11.0994 431.9C13.2994 428.5 18.6994 428.8 22.1994 430.3C33.4994 435.2 43.1994 448.3 49.9994 458.4L51.4994 460.7L51.8994 458C54.0994 445.3 57.9994 428.5 66.8994 419C71.3994 414 80.3994 413 83.8994 419.7C88.6994 429.2 85.3994 444.3 83.1994 454.4C82.0994 459.2 80.6994 464 79.1994 468.7L79.7994 468.6C89.8994 466.8 122.199 461.3 128.399 470.5ZM128.599 470.4C123.399 462.5 100.699 465.3 92.0994 466.1C87.8994 466.6 83.6994 467.1 79.5994 467.9L79.9994 468.3C81.5994 463.8 82.8994 459.2 84.0994 454.5C87.1994 442.3 93.9994 409.2 71.9994 413.8C60.8994 417.5 55.7994 433.4 52.8994 443.6C51.5994 448.3 50.5994 452.9 49.8994 457.7L51.7994 457.3C49.2994 453.4 46.6994 449.8 43.7994 446.2C37.9994 439.2 31.6994 432 23.0994 428.3C18.7994 426.5 12.2994 426.4 9.49937 430.9C5.69937 438.3 14.3994 450.5 18.3994 456.6C23.3994 464 29.1994 471 35.2994 477.7L35.6994 476.2C30.1994 478.1 24.7994 480.2 19.4994 482.5C8.69937 487.3 -18.5006 499 -20.0006 511.5C-20.9006 523.8 7.59937 513 13.5994 511.1C24.4994 507.3 35.1994 502.9 45.7994 498.1L45.3994 497.7C41.3994 510.9 37.5994 524.3 36.1994 538C35.8994 542.6 35.2994 547.6 37.6994 551.8C41.3994 556.9 47.0994 552 49.5994 548.3C52.2994 544.5 54.2994 540.3 56.1994 536.1C59.7994 527.6 62.6994 518.8 65.0994 509.9L63.5994 510.1C66.1994 514.6 68.9994 518.9 71.9994 523.1C78.2994 531.9 91.8994 551.2 103.699 550.3C117.099 547.9 107.099 526.4 103.799 518.8C99.4994 509.4 94.3994 500.5 88.9994 491.8L88.7994 492.3C95.5994 490.2 133.499 479.9 128.599 470.4Z" fill="white"/>
<path d="M173.7 338.5C174.9 338.4 176.1 338.5 177.3 338.5C177.4 337.9 177.4 337.2 177.5 336.6C177.6 336.2 177.6 335.7 177.8 335.4C177.8 335.3 177.9 335.2 178 335.1C178.1 335 178.3 334.8 178.3 334.6C178.3 334.5 178.6 334.4 178.6 334.6C178.6 334.8 178.8 334.9 178.9 335C179 335.2 179.1 335.4 179.1 335.6C179.2 336 179.2 336.3 179.2 336.7C179.3 337.4 179.3 338 179.3 338.7C180.6 338.8 181.9 339.1 183.2 339.6C183.5 339.7 183.5 340.2 183.1 340.2C181.8 340.3 180.6 340.3 179.3 340.3C179.3 341.5 179.2 342.8 179.2 344C179.2 345.4 177 345.4 177 344C177.1 342.7 177.1 341.5 177.2 340.2C176 340.2 174.9 340.2 173.7 340.2C172.6 340.1 172.7 338.5 173.7 338.5Z" fill="white"/>
<path d="M154.5 338.5C155.7 338.4 156.9 338.5 158.1 338.5C158.2 337.9 158.2 337.2 158.3 336.6C158.4 336.2 158.4 335.7 158.6 335.4C158.6 335.3 158.7 335.2 158.8 335.1C158.9 335 159.1 334.8 159.1 334.6C159.1 334.5 159.4 334.4 159.4 334.6C159.4 334.8 159.6 334.9 159.7 335C159.8 335.2 159.9 335.4 159.9 335.6C160 336 160 336.3 160 336.7C160.1 337.4 160.1 338 160.1 338.7C161.4 338.8 162.7 339.1 164 339.6C164.3 339.7 164.3 340.2 163.9 340.2C162.6 340.3 161.4 340.3 160.1 340.3C160.1 341.5 160 342.8 160 344C160 345.4 157.8 345.4 157.8 344C157.9 342.7 157.9 341.5 158 340.2C156.8 340.2 155.7 340.2 154.5 340.2C153.4 340.1 153.4 338.5 154.5 338.5Z" fill="white"/>
<path d="M135.2 338.5C136.4 338.4 137.6 338.5 138.8 338.5C138.9 337.9 138.9 337.2 139 336.6C139.1 336.2 139.1 335.7 139.3 335.4C139.3 335.3 139.4 335.2 139.5 335.1C139.6 335 139.8 334.8 139.8 334.6C139.8 334.5 140.1 334.4 140.1 334.6C140.1 334.8 140.3 334.9 140.4 335C140.5 335.2 140.6 335.4 140.6 335.6C140.7 336 140.7 336.3 140.7 336.7C140.8 337.4 140.8 338 140.8 338.7C142.1 338.8 143.4 339.1 144.7 339.6C145 339.7 145 340.2 144.6 340.2C143.3 340.3 142.1 340.3 140.8 340.3C140.8 341.5 140.7 342.8 140.7 344C140.7 345.4 138.5 345.4 138.5 344C138.6 342.7 138.6 341.5 138.7 340.2C137.5 340.2 136.4 340.2 135.2 340.2C134.1 340.1 134.1 338.5 135.2 338.5Z" fill="white"/>
<path d="M115.899 338.5C117.099 338.4 118.299 338.5 119.499 338.5C119.599 337.9 119.599 337.2 119.699 336.6C119.799 336.2 119.799 335.7 119.999 335.4C119.999 335.3 120.099 335.2 120.199 335.1C120.299 335 120.499 334.8 120.499 334.6C120.499 334.5 120.799 334.4 120.799 334.6C120.799 334.8 120.999 334.9 121.099 335C121.199 335.2 121.299 335.4 121.299 335.6C121.399 336 121.399 336.3 121.399 336.7C121.499 337.4 121.499 338 121.499 338.7C122.799 338.8 124.099 339.1 125.399 339.6C125.699 339.7 125.699 340.2 125.299 340.2C123.999 340.3 122.799 340.3 121.499 340.3C121.499 341.5 121.399 342.8 121.399 344C121.399 345.4 119.199 345.4 119.199 344C119.299 342.7 119.299 341.5 119.399 340.2C118.199 340.2 117.099 340.2 115.899 340.2C114.799 340.1 114.799 338.5 115.899 338.5Z" fill="white"/>
<path d="M96.5995 338.5C97.7995 338.4 98.9995 338.5 100.199 338.5C100.299 337.9 100.299 337.2 100.399 336.6C100.499 336.2 100.499 335.7 100.699 335.4C100.699 335.3 100.799 335.2 100.899 335.1C100.999 335 101.199 334.8 101.199 334.6C101.199 334.5 101.499 334.4 101.499 334.6C101.499 334.8 101.699 334.9 101.799 335C101.899 335.2 101.999 335.4 101.999 335.6C102.099 336 102.099 336.3 102.099 336.7C102.199 337.4 102.199 338 102.199 338.7C103.499 338.8 104.799 339.1 106.099 339.6C106.399 339.7 106.399 340.2 105.999 340.2C104.699 340.3 103.499 340.3 102.199 340.3C102.199 341.5 102.099 342.8 102.099 344C102.099 345.4 99.8995 345.4 99.8995 344C99.9995 342.7 99.9995 341.5 100.099 340.2C98.8995 340.2 97.7995 340.2 96.5995 340.2C95.4995 340.1 95.5995 338.5 96.5995 338.5Z" fill="white"/>
<path d="M77.3992 338.5C78.5992 338.4 79.7992 338.5 80.9992 338.5C81.0992 337.9 81.0992 337.2 81.1992 336.6C81.2992 336.2 81.2992 335.7 81.4992 335.4C81.4992 335.3 81.5992 335.2 81.6992 335.1C81.7992 335 81.9992 334.8 81.9992 334.6C81.9992 334.5 82.2992 334.4 82.2992 334.6C82.2992 334.8 82.4992 334.9 82.5992 335C82.6992 335.2 82.7992 335.4 82.7992 335.6C82.8992 336 82.8992 336.3 82.8992 336.7C82.9992 337.4 82.9992 338 82.9992 338.7C84.2992 338.8 85.5992 339.1 86.8992 339.6C87.1992 339.7 87.1992 340.2 86.7992 340.2C85.4992 340.3 84.2992 340.3 82.9992 340.3C82.9992 341.5 82.8992 342.8 82.8992 344C82.8992 345.4 80.6992 345.4 80.6992 344C80.7992 342.7 80.7992 341.5 80.8992 340.2C79.6992 340.2 78.5992 340.2 77.3992 340.2C76.2992 340.1 76.2992 338.5 77.3992 338.5Z" fill="white"/>
<path d="M58.0994 338.5C59.2994 338.4 60.4994 338.5 61.6994 338.5C61.7994 337.9 61.7994 337.2 61.8994 336.6C61.9994 336.2 61.9994 335.7 62.1994 335.4C62.1994 335.3 62.2994 335.2 62.3994 335.1C62.4994 335 62.6994 334.8 62.6994 334.6C62.6994 334.5 62.9994 334.4 62.9994 334.6C62.9994 334.8 63.1994 334.9 63.2994 335C63.3994 335.2 63.4994 335.4 63.4994 335.6C63.5994 336 63.5994 336.3 63.5994 336.7C63.6994 337.4 63.6994 338 63.6994 338.7C64.9994 338.8 66.2994 339.1 67.5994 339.6C67.8994 339.7 67.8994 340.2 67.4994 340.2C66.1994 340.3 64.9994 340.3 63.6994 340.3C63.6994 341.5 63.5994 342.8 63.5994 344C63.5994 345.4 61.3994 345.4 61.3994 344C61.4994 342.7 61.4994 341.5 61.5994 340.2C60.3994 340.2 59.2994 340.2 58.0994 340.2C56.9994 340.1 56.9994 338.5 58.0994 338.5Z" fill="white"/>
<path d="M38.7996 338.5C39.9996 338.4 41.1996 338.5 42.3996 338.5C42.4996 337.9 42.4996 337.2 42.5996 336.6C42.6996 336.2 42.6996 335.7 42.8996 335.4C42.8996 335.3 42.9996 335.2 43.0996 335.1C43.1996 335 43.3996 334.8 43.3996 334.6C43.3996 334.5 43.6996 334.4 43.6996 334.6C43.6996 334.8 43.8996 334.9 43.9996 335C44.0996 335.2 44.1996 335.4 44.1996 335.6C44.2996 336 44.2996 336.3 44.2996 336.7C44.3996 337.4 44.3996 338 44.3996 338.7C45.6996 338.8 46.9996 339.1 48.2996 339.6C48.5996 339.7 48.5996 340.2 48.1996 340.2C46.8996 340.3 45.6996 340.3 44.3996 340.3C44.3996 341.5 44.2996 342.8 44.2996 344C44.2996 345.4 42.0996 345.4 42.0996 344C42.1996 342.7 42.1996 341.5 42.2996 340.2C41.0996 340.2 39.9996 340.2 38.7996 340.2C37.6996 340.1 37.6996 338.5 38.7996 338.5Z" fill="white"/>
<path d="M173.7 317.4C174.9 317.3 176.1 317.4 177.3 317.4C177.4 316.8 177.4 316.1 177.5 315.5C177.6 315.1 177.6 314.6 177.8 314.3C177.8 314.2 177.9 314.1 178 314C178.1 313.9 178.3 313.7 178.3 313.5C178.3 313.4 178.6 313.3 178.6 313.5C178.6 313.7 178.8 313.8 178.9 313.9C179 314.1 179.1 314.3 179.1 314.5C179.2 314.9 179.2 315.2 179.2 315.6C179.3 316.3 179.3 316.9 179.3 317.6C180.6 317.7 181.9 318 183.2 318.5C183.5 318.6 183.5 319.1 183.1 319.1C181.8 319.2 180.6 319.2 179.3 319.2C179.3 320.4 179.2 321.7 179.2 322.9C179.2 324.3 177 324.3 177 322.9C177.1 321.6 177.1 320.4 177.2 319.1C176 319.1 174.9 319.1 173.7 319.1C172.6 319.1 172.7 317.5 173.7 317.4Z" fill="white"/>
<path d="M154.5 317.4C155.7 317.3 156.9 317.4 158.1 317.4C158.2 316.8 158.2 316.1 158.3 315.5C158.4 315.1 158.4 314.6 158.6 314.3C158.6 314.2 158.7 314.1 158.8 314C158.9 313.9 159.1 313.7 159.1 313.5C159.1 313.4 159.4 313.3 159.4 313.5C159.4 313.7 159.6 313.8 159.7 313.9C159.8 314.1 159.9 314.3 159.9 314.5C160 314.9 160 315.2 160 315.6C160.1 316.3 160.1 316.9 160.1 317.6C161.4 317.7 162.7 318 164 318.5C164.3 318.6 164.3 319.1 163.9 319.1C162.6 319.2 161.4 319.2 160.1 319.2C160.1 320.4 160 321.7 160 322.9C160 324.3 157.8 324.3 157.8 322.9C157.9 321.6 157.9 320.4 158 319.1C156.8 319.1 155.7 319.1 154.5 319.1C153.4 319.1 153.4 317.5 154.5 317.4Z" fill="white"/>
<path d="M135.2 317.4C136.4 317.3 137.6 317.4 138.8 317.4C138.9 316.8 138.9 316.1 139 315.5C139.1 315.1 139.1 314.6 139.3 314.3C139.3 314.2 139.4 314.1 139.5 314C139.6 313.9 139.8 313.7 139.8 313.5C139.8 313.4 140.1 313.3 140.1 313.5C140.1 313.7 140.3 313.8 140.4 313.9C140.5 314.1 140.6 314.3 140.6 314.5C140.7 314.9 140.7 315.2 140.7 315.6C140.8 316.3 140.8 316.9 140.8 317.6C142.1 317.7 143.4 318 144.7 318.5C145 318.6 145 319.1 144.6 319.1C143.3 319.2 142.1 319.2 140.8 319.2C140.8 320.4 140.7 321.7 140.7 322.9C140.7 324.3 138.5 324.3 138.5 322.9C138.6 321.6 138.6 320.4 138.7 319.1C137.5 319.1 136.4 319.1 135.2 319.1C134.1 319.1 134.1 317.5 135.2 317.4Z" fill="white"/>
<path d="M115.899 317.4C117.099 317.3 118.299 317.4 119.499 317.4C119.599 316.8 119.599 316.1 119.699 315.5C119.799 315.1 119.799 314.6 119.999 314.3C119.999 314.2 120.099 314.1 120.199 314C120.299 313.9 120.499 313.7 120.499 313.5C120.499 313.4 120.799 313.3 120.799 313.5C120.799 313.7 120.999 313.8 121.099 313.9C121.199 314.1 121.299 314.3 121.299 314.5C121.399 314.9 121.399 315.2 121.399 315.6C121.499 316.3 121.499 316.9 121.499 317.6C122.799 317.7 124.099 318 125.399 318.5C125.699 318.6 125.699 319.1 125.299 319.1C123.999 319.2 122.799 319.2 121.499 319.2C121.499 320.4 121.399 321.7 121.399 322.9C121.399 324.3 119.199 324.3 119.199 322.9C119.299 321.6 119.299 320.4 119.399 319.1C118.199 319.1 117.099 319.1 115.899 319.1C114.799 319.1 114.799 317.5 115.899 317.4Z" fill="white"/>
<path d="M96.5995 317.4C97.7995 317.3 98.9995 317.4 100.199 317.4C100.299 316.8 100.299 316.1 100.399 315.5C100.499 315.1 100.499 314.6 100.699 314.3C100.699 314.2 100.799 314.1 100.899 314C100.999 313.9 101.199 313.7 101.199 313.5C101.199 313.4 101.499 313.3 101.499 313.5C101.499 313.7 101.699 313.8 101.799 313.9C101.899 314.1 101.999 314.3 101.999 314.5C102.099 314.9 102.099 315.2 102.099 315.6C102.199 316.3 102.199 316.9 102.199 317.6C103.499 317.7 104.799 318 106.099 318.5C106.399 318.6 106.399 319.1 105.999 319.1C104.699 319.2 103.499 319.2 102.199 319.2C102.199 320.4 102.099 321.7 102.099 322.9C102.099 324.3 99.8995 324.3 99.8995 322.9C99.9995 321.6 99.9995 320.4 100.099 319.1C98.8995 319.1 97.7995 319.1 96.5995 319.1C95.4995 319.1 95.5995 317.5 96.5995 317.4Z" fill="white"/>
<path d="M77.3992 317.4C78.5992 317.3 79.7992 317.4 80.9992 317.4C81.0992 316.8 81.0992 316.1 81.1992 315.5C81.2992 315.1 81.2992 314.6 81.4992 314.3C81.4992 314.2 81.5992 314.1 81.6992 314C81.7992 313.9 81.9992 313.7 81.9992 313.5C81.9992 313.4 82.2992 313.3 82.2992 313.5C82.2992 313.7 82.4992 313.8 82.5992 313.9C82.6992 314.1 82.7992 314.3 82.7992 314.5C82.8992 314.9 82.8992 315.2 82.8992 315.6C82.9992 316.3 82.9992 316.9 82.9992 317.6C84.2992 317.7 85.5992 318 86.8992 318.5C87.1992 318.6 87.1992 319.1 86.7992 319.1C85.4992 319.2 84.2992 319.2 82.9992 319.2C82.9992 320.4 82.8992 321.7 82.8992 322.9C82.8992 324.3 80.6992 324.3 80.6992 322.9C80.7992 321.6 80.7992 320.4 80.8992 319.1C79.6992 319.1 78.5992 319.1 77.3992 319.1C76.2992 319.1 76.2992 317.5 77.3992 317.4Z" fill="white"/>
<path d="M58.0994 317.4C59.2994 317.3 60.4994 317.4 61.6994 317.4C61.7994 316.8 61.7994 316.1 61.8994 315.5C61.9994 315.1 61.9994 314.6 62.1994 314.3C62.1994 314.2 62.2994 314.1 62.3994 314C62.4994 313.9 62.6994 313.7 62.6994 313.5C62.6994 313.4 62.9994 313.3 62.9994 313.5C62.9994 313.7 63.1994 313.8 63.2994 313.9C63.3994 314.1 63.4994 314.3 63.4994 314.5C63.5994 314.9 63.5994 315.2 63.5994 315.6C63.6994 316.3 63.6994 316.9 63.6994 317.6C64.9994 317.7 66.2994 318 67.5994 318.5C67.8994 318.6 67.8994 319.1 67.4994 319.1C66.1994 319.2 64.9994 319.2 63.6994 319.2C63.6994 320.4 63.5994 321.7 63.5994 322.9C63.5994 324.3 61.3994 324.3 61.3994 322.9C61.4994 321.6 61.4994 320.4 61.5994 319.1C60.3994 319.1 59.2994 319.1 58.0994 319.1C56.9994 319.1 56.9994 317.5 58.0994 317.4Z" fill="white"/>
<path d="M38.7996 317.4C39.9996 317.3 41.1996 317.4 42.3996 317.4C42.4996 316.8 42.4996 316.1 42.5996 315.5C42.6996 315.1 42.6996 314.6 42.8996 314.3C42.8996 314.2 42.9996 314.1 43.0996 314C43.1996 313.9 43.3996 313.7 43.3996 313.5C43.3996 313.4 43.6996 313.3 43.6996 313.5C43.6996 313.7 43.8996 313.8 43.9996 313.9C44.0996 314.1 44.1996 314.3 44.1996 314.5C44.2996 314.9 44.2996 315.2 44.2996 315.6C44.3996 316.3 44.3996 316.9 44.3996 317.6C45.6996 317.7 46.9996 318 48.2996 318.5C48.5996 318.6 48.5996 319.1 48.1996 319.1C46.8996 319.2 45.6996 319.2 44.3996 319.2C44.3996 320.4 44.2996 321.7 44.2996 322.9C44.2996 324.3 42.0996 324.3 42.0996 322.9C42.1996 321.6 42.1996 320.4 42.2996 319.1C41.0996 319.1 39.9996 319.1 38.7996 319.1C37.6996 319.1 37.6996 317.5 38.7996 317.4Z" fill="white"/>
<path d="M173.7 296.4C174.9 296.3 176.1 296.4 177.3 296.4C177.4 295.8 177.4 295.1 177.5 294.5C177.6 294.1 177.6 293.6 177.8 293.3C177.8 293.2 177.9 293.1 178 293C178.1 292.9 178.3 292.7 178.3 292.5C178.3 292.4 178.6 292.3 178.6 292.5C178.6 292.7 178.8 292.8 178.9 292.9C179 293.1 179.1 293.3 179.1 293.5C179.2 293.9 179.2 294.2 179.2 294.6C179.3 295.3 179.3 295.9 179.3 296.6C180.6 296.7 181.9 297 183.2 297.5C183.5 297.6 183.5 298.1 183.1 298.1C181.8 298.2 180.6 298.2 179.3 298.2C179.3 299.4 179.2 300.7 179.2 301.9C179.2 303.3 177 303.3 177 301.9C177.1 300.6 177.1 299.4 177.2 298.1C176 298.1 174.9 298.1 173.7 298.1C172.6 298.1 172.7 296.5 173.7 296.4Z" fill="white"/>
<path d="M154.5 296.4C155.7 296.3 156.9 296.4 158.1 296.4C158.2 295.8 158.2 295.1 158.3 294.5C158.4 294.1 158.4 293.6 158.6 293.3C158.6 293.2 158.7 293.1 158.8 293C158.9 292.9 159.1 292.7 159.1 292.5C159.1 292.4 159.4 292.3 159.4 292.5C159.4 292.7 159.6 292.8 159.7 292.9C159.8 293.1 159.9 293.3 159.9 293.5C160 293.9 160 294.2 160 294.6C160.1 295.3 160.1 295.9 160.1 296.6C161.4 296.7 162.7 297 164 297.5C164.3 297.6 164.3 298.1 163.9 298.1C162.6 298.2 161.4 298.2 160.1 298.2C160.1 299.4 160 300.7 160 301.9C160 303.3 157.8 303.3 157.8 301.9C157.9 300.6 157.9 299.4 158 298.1C156.8 298.1 155.7 298.1 154.5 298.1C153.4 298.1 153.4 296.5 154.5 296.4Z" fill="white"/>
<path d="M135.2 296.4C136.4 296.3 137.6 296.4 138.8 296.4C138.9 295.8 138.9 295.1 139 294.5C139.1 294.1 139.1 293.6 139.3 293.3C139.3 293.2 139.4 293.1 139.5 293C139.6 292.9 139.8 292.7 139.8 292.5C139.8 292.4 140.1 292.3 140.1 292.5C140.1 292.7 140.3 292.8 140.4 292.9C140.5 293.1 140.6 293.3 140.6 293.5C140.7 293.9 140.7 294.2 140.7 294.6C140.8 295.3 140.8 295.9 140.8 296.6C142.1 296.7 143.4 297 144.7 297.5C145 297.6 145 298.1 144.6 298.1C143.3 298.2 142.1 298.2 140.8 298.2C140.8 299.4 140.7 300.7 140.7 301.9C140.7 303.3 138.5 303.3 138.5 301.9C138.6 300.6 138.6 299.4 138.7 298.1C137.5 298.1 136.4 298.1 135.2 298.1C134.1 298.1 134.1 296.5 135.2 296.4Z" fill="white"/>
<path d="M115.899 296.4C117.099 296.3 118.299 296.4 119.499 296.4C119.599 295.8 119.599 295.1 119.699 294.5C119.799 294.1 119.799 293.6 119.999 293.3C119.999 293.2 120.099 293.1 120.199 293C120.299 292.9 120.499 292.7 120.499 292.5C120.499 292.4 120.799 292.3 120.799 292.5C120.799 292.7 120.999 292.8 121.099 292.9C121.199 293.1 121.299 293.3 121.299 293.5C121.399 293.9 121.399 294.2 121.399 294.6C121.499 295.3 121.499 295.9 121.499 296.6C122.799 296.7 124.099 297 125.399 297.5C125.699 297.6 125.699 298.1 125.299 298.1C123.999 298.2 122.799 298.2 121.499 298.2C121.499 299.4 121.399 300.7 121.399 301.9C121.399 303.3 119.199 303.3 119.199 301.9C119.299 300.6 119.299 299.4 119.399 298.1C118.199 298.1 117.099 298.1 115.899 298.1C114.799 298.1 114.799 296.5 115.899 296.4Z" fill="white"/>
<path d="M96.5995 296.4C97.7995 296.3 98.9995 296.4 100.199 296.4C100.299 295.8 100.299 295.1 100.399 294.5C100.499 294.1 100.499 293.6 100.699 293.3C100.699 293.2 100.799 293.1 100.899 293C100.999 292.9 101.199 292.7 101.199 292.5C101.199 292.4 101.499 292.3 101.499 292.5C101.499 292.7 101.699 292.8 101.799 292.9C101.899 293.1 101.999 293.3 101.999 293.5C102.099 293.9 102.099 294.2 102.099 294.6C102.199 295.3 102.199 295.9 102.199 296.6C103.499 296.7 104.799 297 106.099 297.5C106.399 297.6 106.399 298.1 105.999 298.1C104.699 298.2 103.499 298.2 102.199 298.2C102.199 299.4 102.099 300.7 102.099 301.9C102.099 303.3 99.8995 303.3 99.8995 301.9C99.9995 300.6 99.9995 299.4 100.099 298.1C98.8995 298.1 97.7995 298.1 96.5995 298.1C95.4995 298.1 95.5995 296.5 96.5995 296.4Z" fill="white"/>
<path d="M77.3992 296.4C78.5992 296.3 79.7992 296.4 80.9992 296.4C81.0992 295.8 81.0992 295.1 81.1992 294.5C81.2992 294.1 81.2992 293.6 81.4992 293.3C81.4992 293.2 81.5992 293.1 81.6992 293C81.7992 292.9 81.9992 292.7 81.9992 292.5C81.9992 292.4 82.2992 292.3 82.2992 292.5C82.2992 292.7 82.4992 292.8 82.5992 292.9C82.6992 293.1 82.7992 293.3 82.7992 293.5C82.8992 293.9 82.8992 294.2 82.8992 294.6C82.9992 295.3 82.9992 295.9 82.9992 296.6C84.2992 296.7 85.5992 297 86.8992 297.5C87.1992 297.6 87.1992 298.1 86.7992 298.1C85.4992 298.2 84.2992 298.2 82.9992 298.2C82.9992 299.4 82.8992 300.7 82.8992 301.9C82.8992 303.3 80.6992 303.3 80.6992 301.9C80.7992 300.6 80.7992 299.4 80.8992 298.1C79.6992 298.1 78.5992 298.1 77.3992 298.1C76.2992 298.1 76.2992 296.5 77.3992 296.4Z" fill="white"/>
<path d="M58.0994 296.4C59.2994 296.3 60.4994 296.4 61.6994 296.4C61.7994 295.8 61.7994 295.1 61.8994 294.5C61.9994 294.1 61.9994 293.6 62.1994 293.3C62.1994 293.2 62.2994 293.1 62.3994 293C62.4994 292.9 62.6994 292.7 62.6994 292.5C62.6994 292.4 62.9994 292.3 62.9994 292.5C62.9994 292.7 63.1994 292.8 63.2994 292.9C63.3994 293.1 63.4994 293.3 63.4994 293.5C63.5994 293.9 63.5994 294.2 63.5994 294.6C63.6994 295.3 63.6994 295.9 63.6994 296.6C64.9994 296.7 66.2994 297 67.5994 297.5C67.8994 297.6 67.8994 298.1 67.4994 298.1C66.1994 298.2 64.9994 298.2 63.6994 298.2C63.6994 299.4 63.5994 300.7 63.5994 301.9C63.5994 303.3 61.3994 303.3 61.3994 301.9C61.4994 300.6 61.4994 299.4 61.5994 298.1C60.3994 298.1 59.2994 298.1 58.0994 298.1C56.9994 298.1 56.9994 296.5 58.0994 296.4Z" fill="white"/>
<path d="M38.7996 296.4C39.9996 296.3 41.1996 296.4 42.3996 296.4C42.4996 295.8 42.4996 295.1 42.5996 294.5C42.6996 294.1 42.6996 293.6 42.8996 293.3C42.8996 293.2 42.9996 293.1 43.0996 293C43.1996 292.9 43.3996 292.7 43.3996 292.5C43.3996 292.4 43.6996 292.3 43.6996 292.5C43.6996 292.7 43.8996 292.8 43.9996 292.9C44.0996 293.1 44.1996 293.3 44.1996 293.5C44.2996 293.9 44.2996 294.2 44.2996 294.6C44.3996 295.3 44.3996 295.9 44.3996 296.6C45.6996 296.7 46.9996 297 48.2996 297.5C48.5996 297.6 48.5996 298.1 48.1996 298.1C46.8996 298.2 45.6996 298.2 44.3996 298.2C44.3996 299.4 44.2996 300.7 44.2996 301.9C44.2996 303.3 42.0996 303.3 42.0996 301.9C42.1996 300.6 42.1996 299.4 42.2996 298.1C41.0996 298.1 39.9996 298.1 38.7996 298.1C37.6996 298.1 37.6996 296.5 38.7996 296.4Z" fill="white"/>
<path d="M173.7 275.4C174.9 275.3 176.1 275.4 177.3 275.4C177.4 274.8 177.4 274.1 177.5 273.5C177.6 273.1 177.6 272.6 177.8 272.3C177.8 272.2 177.9 272.1 178 272C178.1 271.9 178.3 271.7 178.3 271.5C178.3 271.4 178.6 271.3 178.6 271.5C178.6 271.7 178.8 271.8 178.9 271.9C179 272.1 179.1 272.3 179.1 272.5C179.2 272.9 179.2 273.2 179.2 273.6C179.3 274.3 179.3 274.9 179.3 275.6C180.6 275.7 181.9 276 183.2 276.5C183.5 276.6 183.5 277.1 183.1 277.1C181.8 277.2 180.6 277.2 179.3 277.2C179.3 278.4 179.2 279.7 179.2 280.9C179.2 282.3 177 282.3 177 280.9C177.1 279.6 177.1 278.4 177.2 277.1C176 277.1 174.9 277.1 173.7 277.1C172.6 277.1 172.7 275.5 173.7 275.4Z" fill="white"/>
<path d="M154.5 275.4C155.7 275.3 156.9 275.4 158.1 275.4C158.2 274.8 158.2 274.1 158.3 273.5C158.4 273.1 158.4 272.6 158.6 272.3C158.6 272.2 158.7 272.1 158.8 272C158.9 271.9 159.1 271.7 159.1 271.5C159.1 271.4 159.4 271.3 159.4 271.5C159.4 271.7 159.6 271.8 159.7 271.9C159.8 272.1 159.9 272.3 159.9 272.5C160 272.9 160 273.2 160 273.6C160.1 274.3 160.1 274.9 160.1 275.6C161.4 275.7 162.7 276 164 276.5C164.3 276.6 164.3 277.1 163.9 277.1C162.6 277.2 161.4 277.2 160.1 277.2C160.1 278.4 160 279.7 160 280.9C160 282.3 157.8 282.3 157.8 280.9C157.9 279.6 157.9 278.4 158 277.1C156.8 277.1 155.7 277.1 154.5 277.1C153.4 277.1 153.4 275.5 154.5 275.4Z" fill="white"/>
<path d="M135.2 275.4C136.4 275.3 137.6 275.4 138.8 275.4C138.9 274.8 138.9 274.1 139 273.5C139.1 273.1 139.1 272.6 139.3 272.3C139.3 272.2 139.4 272.1 139.5 272C139.6 271.9 139.8 271.7 139.8 271.5C139.8 271.4 140.1 271.3 140.1 271.5C140.1 271.7 140.3 271.8 140.4 271.9C140.5 272.1 140.6 272.3 140.6 272.5C140.7 272.9 140.7 273.2 140.7 273.6C140.8 274.3 140.8 274.9 140.8 275.6C142.1 275.7 143.4 276 144.7 276.5C145 276.6 145 277.1 144.6 277.1C143.3 277.2 142.1 277.2 140.8 277.2C140.8 278.4 140.7 279.7 140.7 280.9C140.7 282.3 138.5 282.3 138.5 280.9C138.6 279.6 138.6 278.4 138.7 277.1C137.5 277.1 136.4 277.1 135.2 277.1C134.1 277.1 134.1 275.5 135.2 275.4Z" fill="white"/>
<path d="M115.899 275.4C117.099 275.3 118.299 275.4 119.499 275.4C119.599 274.8 119.599 274.1 119.699 273.5C119.799 273.1 119.799 272.6 119.999 272.3C119.999 272.2 120.099 272.1 120.199 272C120.299 271.9 120.499 271.7 120.499 271.5C120.499 271.4 120.799 271.3 120.799 271.5C120.799 271.7 120.999 271.8 121.099 271.9C121.199 272.1 121.299 272.3 121.299 272.5C121.399 272.9 121.399 273.2 121.399 273.6C121.499 274.3 121.499 274.9 121.499 275.6C122.799 275.7 124.099 276 125.399 276.5C125.699 276.6 125.699 277.1 125.299 277.1C123.999 277.2 122.799 277.2 121.499 277.2C121.499 278.4 121.399 279.7 121.399 280.9C121.399 282.3 119.199 282.3 119.199 280.9C119.299 279.6 119.299 278.4 119.399 277.1C118.199 277.1 117.099 277.1 115.899 277.1C114.799 277.1 114.799 275.5 115.899 275.4Z" fill="white"/>
<path d="M96.5995 275.4C97.7995 275.3 98.9995 275.4 100.199 275.4C100.299 274.8 100.299 274.1 100.399 273.5C100.499 273.1 100.499 272.6 100.699 272.3C100.699 272.2 100.799 272.1 100.899 272C100.999 271.9 101.199 271.7 101.199 271.5C101.199 271.4 101.499 271.3 101.499 271.5C101.499 271.7 101.699 271.8 101.799 271.9C101.899 272.1 101.999 272.3 101.999 272.5C102.099 272.9 102.099 273.2 102.099 273.6C102.199 274.3 102.199 274.9 102.199 275.6C103.499 275.7 104.799 276 106.099 276.5C106.399 276.6 106.399 277.1 105.999 277.1C104.699 277.2 103.499 277.2 102.199 277.2C102.199 278.4 102.099 279.7 102.099 280.9C102.099 282.3 99.8995 282.3 99.8995 280.9C99.9995 279.6 99.9995 278.4 100.099 277.1C98.8995 277.1 97.7995 277.1 96.5995 277.1C95.4995 277.1 95.5995 275.5 96.5995 275.4Z" fill="white"/>
<path d="M77.3992 275.4C78.5992 275.3 79.7992 275.4 80.9992 275.4C81.0992 274.8 81.0992 274.1 81.1992 273.5C81.2992 273.1 81.2992 272.6 81.4992 272.3C81.4992 272.2 81.5992 272.1 81.6992 272C81.7992 271.9 81.9992 271.7 81.9992 271.5C81.9992 271.4 82.2992 271.3 82.2992 271.5C82.2992 271.7 82.4992 271.8 82.5992 271.9C82.6992 272.1 82.7992 272.3 82.7992 272.5C82.8992 272.9 82.8992 273.2 82.8992 273.6C82.9992 274.3 82.9992 274.9 82.9992 275.6C84.2992 275.7 85.5992 276 86.8992 276.5C87.1992 276.6 87.1992 277.1 86.7992 277.1C85.4992 277.2 84.2992 277.2 82.9992 277.2C82.9992 278.4 82.8992 279.7 82.8992 280.9C82.8992 282.3 80.6992 282.3 80.6992 280.9C80.7992 279.6 80.7992 278.4 80.8992 277.1C79.6992 277.1 78.5992 277.1 77.3992 277.1C76.2992 277.1 76.2992 275.5 77.3992 275.4Z" fill="white"/>
<path d="M58.0994 275.4C59.2994 275.3 60.4994 275.4 61.6994 275.4C61.7994 274.8 61.7994 274.1 61.8994 273.5C61.9994 273.1 61.9994 272.6 62.1994 272.3C62.1994 272.2 62.2994 272.1 62.3994 272C62.4994 271.9 62.6994 271.7 62.6994 271.5C62.6994 271.4 62.9994 271.3 62.9994 271.5C62.9994 271.7 63.1994 271.8 63.2994 271.9C63.3994 272.1 63.4994 272.3 63.4994 272.5C63.5994 272.9 63.5994 273.2 63.5994 273.6C63.6994 274.3 63.6994 274.9 63.6994 275.6C64.9994 275.7 66.2994 276 67.5994 276.5C67.8994 276.6 67.8994 277.1 67.4994 277.1C66.1994 277.2 64.9994 277.2 63.6994 277.2C63.6994 278.4 63.5994 279.7 63.5994 280.9C63.5994 282.3 61.3994 282.3 61.3994 280.9C61.4994 279.6 61.4994 278.4 61.5994 277.1C60.3994 277.1 59.2994 277.1 58.0994 277.1C56.9994 277.1 56.9994 275.5 58.0994 275.4Z" fill="white"/>
<path d="M38.7996 275.4C39.9996 275.3 41.1996 275.4 42.3996 275.4C42.4996 274.8 42.4996 274.1 42.5996 273.5C42.6996 273.1 42.6996 272.6 42.8996 272.3C42.8996 272.2 42.9996 272.1 43.0996 272C43.1996 271.9 43.3996 271.7 43.3996 271.5C43.3996 271.4 43.6996 271.3 43.6996 271.5C43.6996 271.7 43.8996 271.8 43.9996 271.9C44.0996 272.1 44.1996 272.3 44.1996 272.5C44.2996 272.9 44.2996 273.2 44.2996 273.6C44.3996 274.3 44.3996 274.9 44.3996 275.6C45.6996 275.7 46.9996 276 48.2996 276.5C48.5996 276.6 48.5996 277.1 48.1996 277.1C46.8996 277.2 45.6996 277.2 44.3996 277.2C44.3996 278.4 44.2996 279.7 44.2996 280.9C44.2996 282.3 42.0996 282.3 42.0996 280.9C42.1996 279.6 42.1996 278.4 42.2996 277.1C41.0996 277.1 39.9996 277.1 38.7996 277.1C37.6996 277.1 37.6996 275.5 38.7996 275.4Z" fill="white"/>
<path d="M173.7 254.4C174.9 254.3 176.1 254.4 177.3 254.4C177.4 253.8 177.4 253.1 177.5 252.5C177.6 252.1 177.6 251.6 177.8 251.3C177.8 251.2 177.9 251.1 178 251C178.1 250.9 178.3 250.7 178.3 250.5C178.3 250.4 178.6 250.3 178.6 250.5C178.6 250.7 178.8 250.8 178.9 250.9C179 251.1 179.1 251.3 179.1 251.5C179.2 251.9 179.2 252.2 179.2 252.6C179.3 253.3 179.3 253.9 179.3 254.6C180.6 254.7 181.9 255 183.2 255.5C183.5 255.6 183.5 256.1 183.1 256.1C181.8 256.2 180.6 256.2 179.3 256.2C179.3 257.4 179.2 258.7 179.2 259.9C179.2 261.3 177 261.3 177 259.9C177.1 258.6 177.1 257.4 177.2 256.1C176 256.1 174.9 256.1 173.7 256.1C172.6 256.1 172.7 254.5 173.7 254.4Z" fill="white"/>
<path d="M154.5 254.4C155.7 254.3 156.9 254.4 158.1 254.4C158.2 253.8 158.2 253.1 158.3 252.5C158.4 252.1 158.4 251.6 158.6 251.3C158.6 251.2 158.7 251.1 158.8 251C158.9 250.9 159.1 250.7 159.1 250.5C159.1 250.4 159.4 250.3 159.4 250.5C159.4 250.7 159.6 250.8 159.7 250.9C159.8 251.1 159.9 251.3 159.9 251.5C160 251.9 160 252.2 160 252.6C160.1 253.3 160.1 253.9 160.1 254.6C161.4 254.7 162.7 255 164 255.5C164.3 255.6 164.3 256.1 163.9 256.1C162.6 256.2 161.4 256.2 160.1 256.2C160.1 257.4 160 258.7 160 259.9C160 261.3 157.8 261.3 157.8 259.9C157.9 258.6 157.9 257.4 158 256.1C156.8 256.1 155.7 256.1 154.5 256.1C153.4 256.1 153.4 254.5 154.5 254.4Z" fill="white"/>
<path d="M135.2 254.4C136.4 254.3 137.6 254.4 138.8 254.4C138.9 253.8 138.9 253.1 139 252.5C139.1 252.1 139.1 251.6 139.3 251.3C139.3 251.2 139.4 251.1 139.5 251C139.6 250.9 139.8 250.7 139.8 250.5C139.8 250.4 140.1 250.3 140.1 250.5C140.1 250.7 140.3 250.8 140.4 250.9C140.5 251.1 140.6 251.3 140.6 251.5C140.7 251.9 140.7 252.2 140.7 252.6C140.8 253.3 140.8 253.9 140.8 254.6C142.1 254.7 143.4 255 144.7 255.5C145 255.6 145 256.1 144.6 256.1C143.3 256.2 142.1 256.2 140.8 256.2C140.8 257.4 140.7 258.7 140.7 259.9C140.7 261.3 138.5 261.3 138.5 259.9C138.6 258.6 138.6 257.4 138.7 256.1C137.5 256.1 136.4 256.1 135.2 256.1C134.1 256.1 134.1 254.5 135.2 254.4Z" fill="white"/>
<path d="M115.899 254.4C117.099 254.3 118.299 254.4 119.499 254.4C119.599 253.8 119.599 253.1 119.699 252.5C119.799 252.1 119.799 251.6 119.999 251.3C119.999 251.2 120.099 251.1 120.199 251C120.299 250.9 120.499 250.7 120.499 250.5C120.499 250.4 120.799 250.3 120.799 250.5C120.799 250.7 120.999 250.8 121.099 250.9C121.199 251.1 121.299 251.3 121.299 251.5C121.399 251.9 121.399 252.2 121.399 252.6C121.499 253.3 121.499 253.9 121.499 254.6C122.799 254.7 124.099 255 125.399 255.5C125.699 255.6 125.699 256.1 125.299 256.1C123.999 256.2 122.799 256.2 121.499 256.2C121.499 257.4 121.399 258.7 121.399 259.9C121.399 261.3 119.199 261.3 119.199 259.9C119.299 258.6 119.299 257.4 119.399 256.1C118.199 256.1 117.099 256.1 115.899 256.1C114.799 256.1 114.799 254.5 115.899 254.4Z" fill="white"/>
<path d="M96.5995 254.4C97.7995 254.3 98.9995 254.4 100.199 254.4C100.299 253.8 100.299 253.1 100.399 252.5C100.499 252.1 100.499 251.6 100.699 251.3C100.699 251.2 100.799 251.1 100.899 251C100.999 250.9 101.199 250.7 101.199 250.5C101.199 250.4 101.499 250.3 101.499 250.5C101.499 250.7 101.699 250.8 101.799 250.9C101.899 251.1 101.999 251.3 101.999 251.5C102.099 251.9 102.099 252.2 102.099 252.6C102.199 253.3 102.199 253.9 102.199 254.6C103.499 254.7 104.799 255 106.099 255.5C106.399 255.6 106.399 256.1 105.999 256.1C104.699 256.2 103.499 256.2 102.199 256.2C102.199 257.4 102.099 258.7 102.099 259.9C102.099 261.3 99.8995 261.3 99.8995 259.9C99.9995 258.6 99.9995 257.4 100.099 256.1C98.8995 256.1 97.7995 256.1 96.5995 256.1C95.4995 256.1 95.5995 254.5 96.5995 254.4Z" fill="white"/>
<path d="M77.3992 254.4C78.5992 254.3 79.7992 254.4 80.9992 254.4C81.0992 253.8 81.0992 253.1 81.1992 252.5C81.2992 252.1 81.2992 251.6 81.4992 251.3C81.4992 251.2 81.5992 251.1 81.6992 251C81.7992 250.9 81.9992 250.7 81.9992 250.5C81.9992 250.4 82.2992 250.3 82.2992 250.5C82.2992 250.7 82.4992 250.8 82.5992 250.9C82.6992 251.1 82.7992 251.3 82.7992 251.5C82.8992 251.9 82.8992 252.2 82.8992 252.6C82.9992 253.3 82.9992 253.9 82.9992 254.6C84.2992 254.7 85.5992 255 86.8992 255.5C87.1992 255.6 87.1992 256.1 86.7992 256.1C85.4992 256.2 84.2992 256.2 82.9992 256.2C82.9992 257.4 82.8992 258.7 82.8992 259.9C82.8992 261.3 80.6992 261.3 80.6992 259.9C80.7992 258.6 80.7992 257.4 80.8992 256.1C79.6992 256.1 78.5992 256.1 77.3992 256.1C76.2992 256.1 76.2992 254.5 77.3992 254.4Z" fill="white"/>
<path d="M58.0994 254.4C59.2994 254.3 60.4994 254.4 61.6994 254.4C61.7994 253.8 61.7994 253.1 61.8994 252.5C61.9994 252.1 61.9994 251.6 62.1994 251.3C62.1994 251.2 62.2994 251.1 62.3994 251C62.4994 250.9 62.6994 250.7 62.6994 250.5C62.6994 250.4 62.9994 250.3 62.9994 250.5C62.9994 250.7 63.1994 250.8 63.2994 250.9C63.3994 251.1 63.4994 251.3 63.4994 251.5C63.5994 251.9 63.5994 252.2 63.5994 252.6C63.6994 253.3 63.6994 253.9 63.6994 254.6C64.9994 254.7 66.2994 255 67.5994 255.5C67.8994 255.6 67.8994 256.1 67.4994 256.1C66.1994 256.2 64.9994 256.2 63.6994 256.2C63.6994 257.4 63.5994 258.7 63.5994 259.9C63.5994 261.3 61.3994 261.3 61.3994 259.9C61.4994 258.6 61.4994 257.4 61.5994 256.1C60.3994 256.1 59.2994 256.1 58.0994 256.1C56.9994 256.1 56.9994 254.5 58.0994 254.4Z" fill="white"/>
<path d="M38.7996 254.4C39.9996 254.3 41.1996 254.4 42.3996 254.4C42.4996 253.8 42.4996 253.1 42.5996 252.5C42.6996 252.1 42.6996 251.6 42.8996 251.3C42.8996 251.2 42.9996 251.1 43.0996 251C43.1996 250.9 43.3996 250.7 43.3996 250.5C43.3996 250.4 43.6996 250.3 43.6996 250.5C43.6996 250.7 43.8996 250.8 43.9996 250.9C44.0996 251.1 44.1996 251.3 44.1996 251.5C44.2996 251.9 44.2996 252.2 44.2996 252.6C44.3996 253.3 44.3996 253.9 44.3996 254.6C45.6996 254.7 46.9996 255 48.2996 255.5C48.5996 255.6 48.5996 256.1 48.1996 256.1C46.8996 256.2 45.6996 256.2 44.3996 256.2C44.3996 257.4 44.2996 258.7 44.2996 259.9C44.2996 261.3 42.0996 261.3 42.0996 259.9C42.1996 258.6 42.1996 257.4 42.2996 256.1C41.0996 256.1 39.9996 256.1 38.7996 256.1C37.6996 256.1 37.6996 254.5 38.7996 254.4Z" fill="white"/>
<path d="M173.7 233.4C174.9 233.3 176.1 233.4 177.3 233.4C177.4 232.8 177.4 232.1 177.5 231.5C177.6 231.1 177.6 230.6 177.8 230.3C177.8 230.2 177.9 230.1 178 230C178.1 229.9 178.3 229.7 178.3 229.5C178.3 229.4 178.6 229.3 178.6 229.5C178.6 229.7 178.8 229.8 178.9 229.9C179 230.1 179.1 230.3 179.1 230.5C179.2 230.9 179.2 231.2 179.2 231.6C179.3 232.3 179.3 232.9 179.3 233.6C180.6 233.7 181.9 234 183.2 234.5C183.5 234.6 183.5 235.1 183.1 235.1C181.8 235.2 180.6 235.2 179.3 235.2C179.3 236.4 179.2 237.7 179.2 238.9C179.2 240.3 177 240.3 177 238.9C177.1 237.6 177.1 236.4 177.2 235.1C176 235.1 174.9 235.1 173.7 235.1C172.6 235.1 172.7 233.5 173.7 233.4Z" fill="white"/>
<path d="M154.5 233.4C155.7 233.3 156.9 233.4 158.1 233.4C158.2 232.8 158.2 232.1 158.3 231.5C158.4 231.1 158.4 230.6 158.6 230.3C158.6 230.2 158.7 230.1 158.8 230C158.9 229.9 159.1 229.7 159.1 229.5C159.1 229.4 159.4 229.3 159.4 229.5C159.4 229.7 159.6 229.8 159.7 229.9C159.8 230.1 159.9 230.3 159.9 230.5C160 230.9 160 231.2 160 231.6C160.1 232.3 160.1 232.9 160.1 233.6C161.4 233.7 162.7 234 164 234.5C164.3 234.6 164.3 235.1 163.9 235.1C162.6 235.2 161.4 235.2 160.1 235.2C160.1 236.4 160 237.7 160 238.9C160 240.3 157.8 240.3 157.8 238.9C157.9 237.6 157.9 236.4 158 235.1C156.8 235.1 155.7 235.1 154.5 235.1C153.4 235.1 153.4 233.5 154.5 233.4Z" fill="white"/>
<path d="M135.2 233.4C136.4 233.3 137.6 233.4 138.8 233.4C138.9 232.8 138.9 232.1 139 231.5C139.1 231.1 139.1 230.6 139.3 230.3C139.3 230.2 139.4 230.1 139.5 230C139.6 229.9 139.8 229.7 139.8 229.5C139.8 229.4 140.1 229.3 140.1 229.5C140.1 229.7 140.3 229.8 140.4 229.9C140.5 230.1 140.6 230.3 140.6 230.5C140.7 230.9 140.7 231.2 140.7 231.6C140.8 232.3 140.8 232.9 140.8 233.6C142.1 233.7 143.4 234 144.7 234.5C145 234.6 145 235.1 144.6 235.1C143.3 235.2 142.1 235.2 140.8 235.2C140.8 236.4 140.7 237.7 140.7 238.9C140.7 240.3 138.5 240.3 138.5 238.9C138.6 237.6 138.6 236.4 138.7 235.1C137.5 235.1 136.4 235.1 135.2 235.1C134.1 235.1 134.1 233.5 135.2 233.4Z" fill="white"/>
<path d="M115.899 233.4C117.099 233.3 118.299 233.4 119.499 233.4C119.599 232.8 119.599 232.1 119.699 231.5C119.799 231.1 119.799 230.6 119.999 230.3C119.999 230.2 120.099 230.1 120.199 230C120.299 229.9 120.499 229.7 120.499 229.5C120.499 229.4 120.799 229.3 120.799 229.5C120.799 229.7 120.999 229.8 121.099 229.9C121.199 230.1 121.299 230.3 121.299 230.5C121.399 230.9 121.399 231.2 121.399 231.6C121.499 232.3 121.499 232.9 121.499 233.6C122.799 233.7 124.099 234 125.399 234.5C125.699 234.6 125.699 235.1 125.299 235.1C123.999 235.2 122.799 235.2 121.499 235.2C121.499 236.4 121.399 237.7 121.399 238.9C121.399 240.3 119.199 240.3 119.199 238.9C119.299 237.6 119.299 236.4 119.399 235.1C118.199 235.1 117.099 235.1 115.899 235.1C114.799 235.1 114.799 233.5 115.899 233.4Z" fill="white"/>
<path d="M96.5995 233.4C97.7995 233.3 98.9995 233.4 100.199 233.4C100.299 232.8 100.299 232.1 100.399 231.5C100.499 231.1 100.499 230.6 100.699 230.3C100.699 230.2 100.799 230.1 100.899 230C100.999 229.9 101.199 229.7 101.199 229.5C101.199 229.4 101.499 229.3 101.499 229.5C101.499 229.7 101.699 229.8 101.799 229.9C101.899 230.1 101.999 230.3 101.999 230.5C102.099 230.9 102.099 231.2 102.099 231.6C102.199 232.3 102.199 232.9 102.199 233.6C103.499 233.7 104.799 234 106.099 234.5C106.399 234.6 106.399 235.1 105.999 235.1C104.699 235.2 103.499 235.2 102.199 235.2C102.199 236.4 102.099 237.7 102.099 238.9C102.099 240.3 99.8995 240.3 99.8995 238.9C99.9995 237.6 99.9995 236.4 100.099 235.1C98.8995 235.1 97.7995 235.1 96.5995 235.1C95.4995 235.1 95.5995 233.5 96.5995 233.4Z" fill="white"/>
<path d="M77.3992 233.4C78.5992 233.3 79.7992 233.4 80.9992 233.4C81.0992 232.8 81.0992 232.1 81.1992 231.5C81.2992 231.1 81.2992 230.6 81.4992 230.3C81.4992 230.2 81.5992 230.1 81.6992 230C81.7992 229.9 81.9992 229.7 81.9992 229.5C81.9992 229.4 82.2992 229.3 82.2992 229.5C82.2992 229.7 82.4992 229.8 82.5992 229.9C82.6992 230.1 82.7992 230.3 82.7992 230.5C82.8992 230.9 82.8992 231.2 82.8992 231.6C82.9992 232.3 82.9992 232.9 82.9992 233.6C84.2992 233.7 85.5992 234 86.8992 234.5C87.1992 234.6 87.1992 235.1 86.7992 235.1C85.4992 235.2 84.2992 235.2 82.9992 235.2C82.9992 236.4 82.8992 237.7 82.8992 238.9C82.8992 240.3 80.6992 240.3 80.6992 238.9C80.7992 237.6 80.7992 236.4 80.8992 235.1C79.6992 235.1 78.5992 235.1 77.3992 235.1C76.2992 235.1 76.2992 233.5 77.3992 233.4Z" fill="white"/>
<path d="M58.0994 233.4C59.2994 233.3 60.4994 233.4 61.6994 233.4C61.7994 232.8 61.7994 232.1 61.8994 231.5C61.9994 231.1 61.9994 230.6 62.1994 230.3C62.1994 230.2 62.2994 230.1 62.3994 230C62.4994 229.9 62.6994 229.7 62.6994 229.5C62.6994 229.4 62.9994 229.3 62.9994 229.5C62.9994 229.7 63.1994 229.8 63.2994 229.9C63.3994 230.1 63.4994 230.3 63.4994 230.5C63.5994 230.9 63.5994 231.2 63.5994 231.6C63.6994 232.3 63.6994 232.9 63.6994 233.6C64.9994 233.7 66.2994 234 67.5994 234.5C67.8994 234.6 67.8994 235.1 67.4994 235.1C66.1994 235.2 64.9994 235.2 63.6994 235.2C63.6994 236.4 63.5994 237.7 63.5994 238.9C63.5994 240.3 61.3994 240.3 61.3994 238.9C61.4994 237.6 61.4994 236.4 61.5994 235.1C60.3994 235.1 59.2994 235.1 58.0994 235.1C56.9994 235.1 56.9994 233.5 58.0994 233.4Z" fill="white"/>
<path d="M38.7996 233.4C39.9996 233.3 41.1996 233.4 42.3996 233.4C42.4996 232.8 42.4996 232.1 42.5996 231.5C42.6996 231.1 42.6996 230.6 42.8996 230.3C42.8996 230.2 42.9996 230.1 43.0996 230C43.1996 229.9 43.3996 229.7 43.3996 229.5C43.3996 229.4 43.6996 229.3 43.6996 229.5C43.6996 229.7 43.8996 229.8 43.9996 229.9C44.0996 230.1 44.1996 230.3 44.1996 230.5C44.2996 230.9 44.2996 231.2 44.2996 231.6C44.3996 232.3 44.3996 232.9 44.3996 233.6C45.6996 233.7 46.9996 234 48.2996 234.5C48.5996 234.6 48.5996 235.1 48.1996 235.1C46.8996 235.2 45.6996 235.2 44.3996 235.2C44.3996 236.4 44.2996 237.7 44.2996 238.9C44.2996 240.3 42.0996 240.3 42.0996 238.9C42.1996 237.6 42.1996 236.4 42.2996 235.1C41.0996 235.1 39.9996 235.1 38.7996 235.1C37.6996 235.1 37.6996 233.5 38.7996 233.4Z" fill="white"/>
<path d="M465.9 443.4C467.3 442.4 468.8 441.4 470.2 440.4C470.9 440 471.6 439.5 472.4 439.1C472.8 438.9 473.2 438.6 473.5 438.4C473.9 438.2 474.3 438 474.7 437.8C475.3 437.5 476 437.6 476.5 438.2C476.9 438.7 476.9 439.5 476.4 440C476.1 440.3 475.8 440.7 475.5 441C475.2 441.3 474.8 441.6 474.4 441.8C473.7 442.3 473 442.9 472.4 443.4C470.9 444.6 469.4 445.7 467.8 446.8C467 447.4 465.6 447 465.1 446.1C464.7 445.1 465 444 465.9 443.4Z" fill="white"/>
<path d="M453.199 441.6C453.599 440.9 454.199 440.6 454.799 440.1C455.199 439.9 455.499 439.6 455.899 439.4C456.799 438.9 457.599 438.4 458.499 438C460.199 437.1 461.999 436.3 463.799 435.4C464.399 435.1 464.999 435.2 465.399 435.7C465.699 436.2 465.799 436.9 465.299 437.3C463.699 438.6 462.199 440 460.499 441.2C459.699 441.8 458.899 442.3 458.199 442.9C457.199 443.6 456.099 444.5 454.899 444.5C453.299 444.7 452.499 442.9 453.199 441.6Z" fill="white"/>
<path d="M446.799 457.4C447.999 455.4 450.099 454 451.899 452.8C453.599 451.6 455.499 450.6 457.399 449.7C458.099 449.4 458.899 449.4 459.399 450.1C459.899 450.7 459.799 451.5 459.299 452.1C457.899 453.7 456.399 455.1 454.799 456.4C452.999 457.8 451.099 459.5 448.899 460C447.399 460.4 445.999 458.8 446.799 457.4Z" fill="white"/>
<path d="M461.899 458.3C462.299 457.9 462.599 457.4 462.999 457C463.499 456.5 464.099 456.2 464.699 455.8C465.599 455.1 466.599 454.6 467.599 454C468.599 453.5 469.599 452.9 470.499 452.4C471.599 451.8 472.699 451.4 473.799 451C474.299 450.8 474.999 451.1 475.299 451.6C475.599 452.1 475.499 452.7 475.099 453.2C474.299 454.1 473.599 454.9 472.699 455.6C471.799 456.3 470.999 457 470.099 457.7C469.099 458.5 468.099 459.2 467.099 459.9C466.599 460.2 466.099 460.5 465.599 460.8C464.999 461.1 464.299 461.3 463.699 461.5C462.999 461.7 461.999 461.4 461.699 460.7C461.199 459.8 461.299 459 461.899 458.3Z" fill="white"/>
<path d="M23.8003 0.800113C22.9003 -0.699887 21.9003 -2.09989 21.0003 -3.69989C20.6003 -4.39989 20.2003 -5.19987 19.8003 -5.89987C19.6003 -6.29987 19.3003 -6.69988 19.1003 -7.09988C18.9003 -7.49988 18.8003 -7.89987 18.6003 -8.39987C18.3003 -8.99987 18.4003 -9.69989 19.0003 -10.1999C19.6003 -10.5999 20.3003 -10.4999 20.8003 -9.99988C21.1003 -9.69987 21.4003 -9.39987 21.7003 -8.99988C22.0003 -8.69987 22.2003 -8.29987 22.5003 -7.89987C23.0003 -7.19987 23.5003 -6.49986 24.0003 -5.79986C25.1003 -4.29986 26.1003 -2.69988 27.2003 -1.09988C27.8003 -0.199881 27.3003 1.10013 26.4003 1.60013C25.4003 2.10013 24.4003 1.80011 23.8003 0.800113Z" fill="white"/>
<path d="M21.4001 13.5001C20.7001 13.1001 20.4001 12.4001 20.0001 11.8001C19.8001 11.4001 19.5001 11.0001 19.3001 10.6001C18.8001 9.70007 18.4001 8.80006 18.0001 7.90006C17.1001 6.20006 16.4001 4.30007 15.7001 2.50007C15.5001 1.90007 15.6001 1.30006 16.1001 0.900061C16.6001 0.60006 17.3001 0.600073 17.7001 1.10007C18.9001 2.70007 20.3001 4.30007 21.4001 6.00007C21.9001 6.80007 22.5001 7.60006 23.0001 8.40006C23.7001 9.40006 24.5001 10.6001 24.5001 11.8001C24.6001 13.5001 22.7001 14.3001 21.4001 13.5001Z" fill="white"/>
<path d="M36.9005 20.5001C35.0005 19.2001 33.7005 17.1001 32.5005 15.2001C31.4005 13.4001 30.5005 11.5001 29.7005 9.60008C29.4005 8.90008 29.5005 8.10008 30.2005 7.70008C30.8005 7.30009 31.6005 7.40007 32.2005 7.90007C33.7005 9.30007 35.1005 10.9001 36.4005 12.6001C37.8005 14.4001 39.3005 16.4001 39.8005 18.7001C40.0005 20.1001 38.2005 21.4001 36.9005 20.5001Z" fill="white"/>
<path d="M38.4997 5.50005C38.0997 5.10005 37.5997 4.80004 37.2997 4.30004C36.8997 3.80004 36.4997 3.10006 36.0997 2.60006C35.4997 1.70006 34.9997 0.700067 34.4997 -0.299933C33.9997 -1.29993 33.4997 -2.29993 32.9997 -3.29993C32.4997 -4.39993 32.0997 -5.49996 31.7997 -6.69996C31.5997 -7.19996 31.9997 -7.89995 32.4997 -8.09995C32.9997 -8.39995 33.5997 -8.19993 34.0997 -7.79993C34.8997 -6.99993 35.6997 -6.19993 36.3997 -5.29993C36.9997 -4.39993 37.6997 -3.49995 38.2997 -2.59995C38.9997 -1.59995 39.6997 -0.599945 40.2997 0.500055C40.5997 1.00005 40.8997 1.50005 41.0997 2.00005C41.3997 2.60005 41.4997 3.30005 41.6997 3.90005C41.8997 4.60005 41.4997 5.50005 40.7997 5.90005C39.8997 6.30005 39.0997 6.10005 38.4997 5.50005Z" fill="white"/>
</g>
</g>
<defs>
<clipPath id="clip0_522_3932">
<rect width="750" height="500" fill="white" transform="matrix(1 0 0 -1 0 485)"/>
</clipPath>
</defs>
</svg>
